# xmcd CD database file
#
# Track frame offsets:
#	150
#	19171
#	37637
#	57781
#	72081
#	84974
#	102765
#	117506
#	135228
#	161649
#	174385
#	188721
#	213272
#
# Disc length: 3192 seconds
#
# Revision: 0
# Processed by: cddbd v1.5PL3 Copyright (c) Steve Scherf et al.
# Submitted via: CDex 1.51
#
DISCID=9a0c760d
DTITLE=KG Jackson and Shakin Ground - Whose Blues Are These
DYEAR=1996
DGENRE=Blues
TTITLE0=Who's GonnaBe My Baby Now
TTITLE1=Wasted Years
TTITLE2=Down At My Buryin'
TTITLE3=I Woke Up Evil
TTITLE4=Blood Hound
TTITLE5=Blues For B R
TTITLE6=Ora Belle
TTITLE7=The Blues Don't Bother Me
TTITLE8=Tryin' To Find A Reason
TTITLE9=One Eye Open
TTITLE10=Shakin' Ground
TTITLE11=Whose Blues Are These
TTITLE12=That Ole Mainline
EXTD=YEAR: 1996
EXTT0=
EXTT1=
EXTT2=
EXTT3=
EXTT4=
EXTT5=
EXTT6=
EXTT7=
EXTT8=
EXTT9=
EXTT10=
EXTT11=
EXTT12=
PLAYORDER=
